<!DOCTYPE svg PUBLIC "-//W3C//DTD SVG 1.1//EN" "http://www.w3.org/Graphics/SVG/1.1/DTD/svg11.dtd">

<!-- Uploaded to: SVG Repo, www.svgrepo.com, Transformed by: SVG Repo Mixer Tools -->
<svg xmlns="http://www.w3.org/2000/svg" version="1.1" xmlns:xlink="http://www.w3.org/1999/xlink" width="512" height="512" x="0" y="0" viewBox="0 0 60 60" style="enable-background:new 0 0 512 512" xml:space="preserve" class=""><g transform="matrix(-0.8500000000000006,0,0,0.8500000000000006,55.41338898241521,4.531503573060018)"><path d="M10.303 26.057c-3.444-.231-7.688-.38-9.297 3.261C.433 30.439.413 31.828.52 33c-.158 2.456 1.053 5.057 3.442 6.024.984.498 2.493.464 3.575.547.86.053 1.719.134 2.579.228.04 1.113.149 2.183.324 3.131C12.223 52.593 21.23 60.13 31 59.9c1.51-.02 5.45-.106 6.91-.09 11.216.12 20.218-7.895 21.36-18.2.33-2.73.055-6.5.135-9.26v-4.6c.01-.78-.015-1.67-.345-2.42-.63-1.57-2.23-2.703-3.93-2.733h-.752c.386-.352.674-.802.842-1.303.618-1.842-.952-3.999-2.907-4.003l-.021-.002c.072-.106.156-.204.215-.317.768-1.394.357-3.222-.847-4.194 1.41-1.216 2.401-2.912 2.866-4.722C55.61 4.229 53.122.196 48.915.622c-3.265.331-6.049 2.454-7.768 5.207-1.086-.401-2.061-1.002-2.772-2.131-.745-.811-.73-2.31-1.563-2.899-.686-.42-1.465-.253-2.154-.243-3.4.154-6.89 1.167-9.49 3.473-2.471 2.191-4.398 5.03-5.016 8.332l-.614-.046c-1.1-.082-2.319.442-2.973 1.46-.77 1.05-.689 2.422-.087 3.467a3.438 3.438 0 0 0-1.527.911c-1.059 1.092-1.219 2.889-.402 4.133-2.138.26-3.773 1.715-4.246 3.774zM1.48 33c.04-1.126.104-2.124.704-3.048 1.767-2.838 5.14-1.785 7.996-1.967-.002.44-.011 1.331-.021 2.282-1.479.262-2.931.297-4.441.371-.652.123-1.163.773-1.139 1.416L4.52 33l-.093.946c-.12 1.026.818 1.851 1.841 1.829 1.27.12 2.564.282 3.844.204-.013.726-.026 1.475-.026 2.225-.85.092-1.7.172-2.55.224-3.681.663-6.57-1.555-6.057-5.429zm8.664-1.267c-.008.825-.014 2.127-.014 2.276-1.449-.09-2.933.163-4.337.248-.107-.053-.194-.112-.221-.311-.054-.47-.13-1.42-.152-1.893a.58.58 0 0 1 .455-.649 22.915 22.915 0 0 1 4.268.329zM52.859 7.565c-.673 1.775-1.923 3.248-3.351 4.486-.061-.007-.121-.01-.181-.017-.285-1.596-.939-3.176-2.284-4.235a24.214 24.214 0 0 1 1.839-2.754c.78-1.057 1.63-2.041 2.495-3.119 1.769 1.04 2.32 3.43 1.483 5.639zm-3.891-6.156c.338-.024.652-.006.953.033-2.053 1.241-3.714 3.351-4.159 5.703-1.002-.398-2.072-.614-3.109-.87.969-2.542 3.553-4.677 6.315-4.867zM17.412 18.913c7.453-.469 15.676-.722 23.094-.017 1.32.125 1.299-1.895 0-1.791-5.134.545-10.279.598-15.429.402-1.907-.094-3.765-.212-5.676-.31-1.874-.628-2.008-3.19.137-3.51 4.384-.381 8.878-.478 13.238.209.601.112 1.16-.443 1.047-1.047a.91.91 0 0 0-1.047-.744c-1.765.299-3.53.412-5.295.472-1.765.049-3.53.046-5.295-.064l-.351-.026c.076-2.914 1.816-5.84 3.893-7.823 2.689-2.456 6.551-3.417 10.123-3.089.334.069.43.177.453.325.404 2.703 2.575 5.035 5.164 5.898 1.687.562 3.402.821 4.363 1.6.375.265.646.682.858 1.086.265.519.521 1.104.724 1.681-.736.311-.713 1.51.131 1.727.85.219 1.753.077 2.55-.012 1.4-.335 2.601 1.443 1.716 2.684-.17.275-.43.471-.711.596-1.205-.141-2.455-.281-3.605-.056a.917.917 0 0 0-.703.703c-.169 1.824 2.823 1.096 3.918 1.078.771-.013 2.143-.4 2.854-.047 1.742.866 1.183 3.485-.58 3.742 0 0-27.089-.186-35.689-.286-1.679-.65-1.748-3.096.12-3.383zM13.94 23.93c.65-.25 1.32-.345 2.03-.365h39.14c1.39.02 2.71.775 3.23 2.065.29.68.265 1.36.255 2.12v4.6c-.077 2.272.093 5.45-.102 7.939-.778-.451-1.971-.814-2.212-.572a.283.283 0 0 0-.008.396 4.257 4.257 0 0 0 2.127 1.048c-.014.111-.025.233-.04.34a20.037 20.037 0 0 1-.474 2.433c-1.023-.828-4.322-2.102-4.695-2.084-1.558.372 3.406 2.422 4.516 2.688a18.246 18.246 0 0 1-1.02 2.614c-.948-.64-2.85-1.471-3.079-1.624-1.214-.536-2.42-1.088-3.707-1.468a.262.262 0 0 0-.291.105.26.26 0 0 0 .072.361 32.403 32.403 0 0 0 6.709 3.195c-.432.82-.917 1.611-1.462 2.36-1.14-.64-2.31-1.21-3.47-1.78-1.59-.73-3.18-1.46-4.85-2.03-.11-.04-.24 0-.3.11-.08.12-.04.28.08.35 2.58 1.54 5.28 2.86 8.08 3.96a20.016 20.016 0 0 1-2.016 2.193c-.91-.668-2.976-1.598-3.213-1.763-1.227-.562-2.447-1.139-3.749-1.546a.261.261 0 0 0-.225.464 33.58 33.58 0 0 0 6.686 3.302 20.083 20.083 0 0 1-2.662 1.98c-.951-.889-4.532-2.438-4.917-2.438-1.471.272 2.65 2.24 4.256 2.839a19.457 19.457 0 0 1-3.186 1.449c-.85-.59-2.16-1.155-2.402-.914a.274.274 0 0 0-.029.387c.355.365.75.664 1.173.915a17.884 17.884 0 0 1-5.127.643c-2.09-.02-5.93-.07-8.06-.1-8.89 0-16.93-6.809-18.71-15.52-.517-2.529-.345-6.4-.445-9.02v-5.75c-.2-1.65.475-3.32 2.095-3.88z" fill="#ffffff" opacity="1" data-original="#000000" class=""></path><path d="M31 55.895c1.359.142 1.346-1.936 0-1.791-9.056 1.046-14.541-6.763-15.105-15.105-.072-1.06-1.712-1.063-1.791 0-.678 9.128 8.439 15.972 16.895 16.895z" fill="#ffffff" opacity="1" data-original="#000000" class=""></path></g></svg>