<?xml version="1.0" encoding="iso-8859-1"?>
<!-- Uploaded to: SVG Repo, www.svgrepo.com, Generator: SVG Repo Mixer Tools -->
<svg xmlns="http://www.w3.org/2000/svg" version="1.1" xmlns:xlink="http://www.w3.org/1999/xlink" width="512" height="512" x="0" y="0" viewBox="0 0 134 134" style="enable-background:new 0 0 512 512" xml:space="preserve" class=""><g><path d="M34.05 49.78c.64 1.11 1.42 2.15 2.4 2.97 1.9 1.68 4.34 2.63 6.74 2.73-2.22-.91-4.18-2.17-5.65-3.83-1.47-1.65-2.44-3.68-2.71-5.79-.17-1.06-.1-2.14.11-3.19.19-1.06.57-2.09 1.1-3.05.54-.96 1.2-1.87 2-2.68s1.74-1.51 2.74-2.18c-1.17.27-2.3.76-3.36 1.42-1.02.7-1.95 1.57-2.7 2.61-1.14 1.54-1.8 3.43-1.92 5.37-.06-.02-.12-.04-.18-.05-5.18-.32-9.3-3.98-9.57-8.5-.18-3.21 1.57-6.25 4.66-8.13.41-.25.58-.74.42-1.19-.35-.98-.55-1.9-.61-2.78-.34-5.94 4.87-11.1 11.62-11.51 2.85-.16 5.7.6 8 2.15.27.18.62.22.93.1s.53-.39.6-.71c.93-4.15 4.91-7.25 9.66-7.54 2.87-.15 5.61.71 7.72 2.45.41.34 1 .3 1.36-.08 1.86-1.97 4.48-3.16 7.35-3.33 5.14-.28 9.73 2.85 10.68 7.32a1.006 1.006 0 0 0 1.33.73c1.1-.42 2.17-.65 3.25-.72 5.67-.34 10.55 3.47 10.88 8.49-.01.06-.01.12-.01.16a1 1 0 0 0 .91 1c5.04.48 8.89 4.05 9.15 8.49.25 4.07-2.67 7.84-7.1 9.2-.3-1.34-.84-2.63-1.64-3.72-1.88-2.67-4.92-4.29-7.94-4.58 2.83 1.1 5.24 2.98 6.64 5.42 1.4 2.43 1.67 5.36.71 7.92-.9 2.58-2.94 4.71-5.44 6.05-2.51 1.34-5.48 1.9-8.51 1.62 2.85 1.1 6.22 1.03 9.17-.2 1.49-.6 2.85-1.52 4.02-2.66 1.15-1.16 2.07-2.57 2.64-4.13.42-1.2.63-2.47.61-3.74.06-.01.13 0 .19-.02 5.4-1.6 8.95-6.24 8.65-11.28-.3-5.17-4.5-9.37-10.1-10.25-.73-5.82-6.38-10.15-12.94-9.75-.94.06-1.87.22-2.8.5C85.5 6 80.34 2.69 74.65 3.02c-3.07.18-5.9 1.35-8.05 3.32-2.38-1.69-5.33-2.52-8.39-2.35-5.14.31-9.53 3.44-11.11 7.79-2.43-1.31-5.25-1.94-8.08-1.79-7.85.47-13.9 6.58-13.5 13.63.06.84.22 1.69.48 2.57-3.27 2.27-5.16 5.85-4.95 9.52.33 5.53 5.25 9.99 11.44 10.38h.06c.1 0 .2-.03.29-.06 0 .02 0 .05.01.07.19 1.29.6 2.54 1.2 3.68z" fill="#ffffff" opacity="1" data-original="#000000"></path><path d="M60.54 14.56c1.35-1.03 3.35-1.25 5.35-.01-.34-1.15-1.43-2.09-2.72-2.41-1.29-.33-2.77-.02-3.85.83-1.1.83-1.78 2.18-1.79 3.51-.01.65.13 1.29.4 1.85a7.51 7.51 0 0 0-2.78-1.16c-2.24-.46-4.72.11-6.56 1.55-1.86 1.41-3.05 3.66-3.19 5.94-.17 2.27.73 4.56 2.34 5.95-.93-1.9-1.19-3.91-.8-5.75s1.43-3.45 2.86-4.55c1.44-1.1 3.26-1.69 5.14-1.59s3.75.87 5.35 2.25c-.31-.64-.74-1.22-1.26-1.74-.44-2.02.27-3.71 1.51-4.67zM93.19 23.03a5.143 5.143 0 0 0-1.99-3.91c-1.2-.95-2.84-1.3-4.28-.96-1.44.31-2.68 1.34-3.12 2.6 2.2-1.49 4.59-1.31 6.18-.06 1.6 1.23 2.36 3.51 1.46 6 1.11-.74 1.8-2.19 1.75-3.67zM98.9 83.22c-3.19-.04-6.34 1.5-8.22 3.95l-1.8-1.81a.99.99 0 0 0-.71-.29c-.27 0-.52.11-.71.29l-6.3 6.3c-1.67-1.29-3.49-2.31-5.46-3.01V77.01c0-.55-.45-1-1-1h-.48v-21.6c0-.55-.45-1-1-1h-1.24v-6.98h9.99c4.72 0 8.56-3.84 8.56-8.56V34.9c0-.55-.45-1-1-1h-41.1c-.55 0-1 .45-1 1v2.97c0 4.72 3.84 8.56 8.56 8.56H66v6.98h-1.24c-.55 0-1 .45-1 1v21.6h-.47c-.55 0-1 .45-1 1v11.65c-1.52.54-2.95 1.26-4.26 2.11.03-.86.07-1.71.1-2.57.26-5.77.54-11.73-1.84-17.12-1.43-3.25-4.6-6.89-8.83-6.51-2.13.2-4.23 1.5-5.76 3.57-1.11 1.51-1.82 3.2-2.45 4.88l-3.49-.89c-.54-.14-1.08.19-1.22.72s.19 1.08.72 1.21l.54.14-2.74 15.7a1 1 0 0 0 .74 1.14l3.07.78a1.01 1.01 0 0 0 1.2-.65l5.1-15.1.54.14a1.003 1.003 0 0 0 1.22-.72.989.989 0 0 0-.72-1.21l-1.44-.37-1.57-.4c.57-1.48 1.2-2.95 2.11-4.19 1.19-1.61 2.77-2.62 4.33-2.76 2.98-.27 5.57 2.48 6.82 5.33 2.19 4.96 1.94 10.43 1.67 16.22-.06 1.39-.13 2.8-.15 4.2-4.31 3.7-6.94 9.15-6.94 15.13 0 6.77 3.37 12.91 8.84 16.56h-.07c-2.78 0-5.05 2.27-5.05 5.05v.95c0 .55.45 1 1 1h30.46c.55 0 1-.45 1-1v-.94c0-2.78-2.27-5.05-5.05-5.05h-.07c1.66-1.11 3.12-2.44 4.35-3.95 5.81-.05 11.32-1.51 15.74-4.23 5.88-3.6 9.91-9.49 10.79-15.76.56-4.08-.23-8.03-2.24-11.13-2.24-3.46-6.02-5.65-9.84-5.72zm-62.42 6.44-1.28-.33 2.55-14.63 1.63.41c.04.02.08.06.12.08.13.05.27.07.41.06l1.32.33zm51.69-2.17 3.61 3.61-5.83 5.83c-.08-.13-.17-.25-.25-.37s-.16-.25-.25-.37a21.9 21.9 0 0 0-.91-1.24l-.06-.09c-.34-.42-.71-.83-1.09-1.22-.1-.11-.21-.21-.31-.31-.12-.12-.24-.25-.37-.37zM49.44 37.86v-1.97h39.1v1.97c0 3.62-2.94 6.56-6.56 6.56H56.01c-3.62.01-6.57-2.94-6.57-6.56zM68 46.43h1.99v6.98H68zm-2.24 8.98H72.23v20.6h-6.46v-20.6zm-2.17 34.92c.42-.13.7-.52.7-.95V78.01H73.7v11.37c0 .44.28.82.7.95 2.27.71 4.36 1.87 6.2 3.43.43.36.84.74 1.22 1.14.01.01.02.03.03.04a17.66 17.66 0 0 1 2.91 3.96 17.94 17.94 0 0 1 2.16 8.55c0 3.92-1.26 7.59-3.46 10.6-.61-.01-1.22-.02-1.84-.07-10.38-.75-19.06-6.31-22.12-14.17-1.28-3.29-1.56-6.89-1.54-10.53 1.67-1.28 3.55-2.29 5.63-2.95zM83.22 129H54.77a3.05 3.05 0 0 1 3.05-2.99h22.36c1.66 0 3.01 1.33 3.04 2.99zm-7.33-4.99H62.1c-6.72-2.79-11.06-9.27-11.06-16.56 0-4.75 1.84-9.13 4.95-12.39.08 3.23.48 6.43 1.66 9.47 3.34 8.57 12.7 14.63 23.84 15.44.11.01.23.01.34.01a17.855 17.855 0 0 1-5.94 4.03zm33.12-24.22c-.8 5.68-4.48 11.04-9.86 14.33-3.74 2.3-8.34 3.62-13.24 3.88 1.93-3.09 3.02-6.72 3.02-10.56 0-3.02-.69-6-1.99-8.68l6.95-6.95a.996.996 0 0 0 0-1.41l-1.78-1.78c1.44-2.06 4-3.4 6.63-3.4h.12c3.17.06 6.32 1.91 8.21 4.81 1.75 2.69 2.44 6.16 1.94 9.76z" fill="#ffffff" opacity="1" data-original="#000000"></path></g></svg>