<?xml version="1.0" ?>

<!-- Uploaded to: SVG Repo, www.svgrepo.com, Generator: SVG Repo Mixer Tools -->
<svg xmlns="http://www.w3.org/2000/svg" version="1.1" xmlns:xlink="http://www.w3.org/1999/xlink" width="512" height="512" x="0" y="0" viewBox="0 0 340 340" style="enable-background:new 0 0 512 512" xml:space="preserve" class=""><g transform="matrix(0.8600000000000002,0,0,0.8600000000000002,23.799999599456697,24.185771045684703)"><path d="m287.049 324.381 9.242-8.295c30.127-3.486 37.233-25.026 37.525-25.955a4 4 0 0 0-3.816-5.2h-81.166a52.665 52.665 0 0 0 24.808-44.663v-54.421h17.882a32.77 32.77 0 0 1 23.694 9.771 30.859 30.859 0 0 1 8.773 22.49c-.43 18.209-13.934 32.5-30.809 32.69a5 5 0 0 1 .14-10c.069 0 .137 0 .2-.005 11.218-.255 19.977-9.889 20.457-22.608a20.965 20.965 0 0 0-5.82-15.493 23.113 23.113 0 0 0-16.64-6.847h-5.238a4 4 0 0 0 0 8h5.238a15.082 15.082 0 0 1 10.877 4.4 12.865 12.865 0 0 1 3.589 9.642c-.28 7.412-4.808 14.915-12.92 14.915-.105 0-.21 0-.314.013a13 13 0 0 0-.516 25.943 4.091 4.091 0 0 0 .6.044h.483c.077 0 .155 0 .232-.007 21.081-.391 37.9-18.037 38.435-40.5a38.8 38.8 0 0 0-11.048-28.27 40.7 40.7 0 0 0-29.417-12.181H111.972a4 4 0 0 0-4 4v58.422a52.665 52.665 0 0 0 24.808 44.663h-27.586A15.492 15.492 0 0 0 94.1 262.1a15.413 15.413 0 0 0-.069-15.345 15.515 15.515 0 0 0-2.4-30.844H65.192c-.083 0-.161.019-.243.024a4.094 4.094 0 0 0-.518.052 3.789 3.789 0 0 0-.372.107c-.125.037-.251.066-.371.115s-.235.117-.351.178-.23.113-.339.184a3.874 3.874 0 0 0-.312.246 3.522 3.522 0 0 0-.292.241 4.084 4.084 0 0 0-.346.407c-.048.061-.105.112-.15.177l-.021.03a379.08 379.08 0 0 1-4.037 5.717 7.8 7.8 0 0 1-3.865 2.848 4 4 0 1 0 2.55 7.583 15.751 15.751 0 0 0 7.807-5.757 383.197 383.197 0 0 0 2.952-4.156h24.341a7.525 7.525 0 1 1 0 15.049H32.618a7.525 7.525 0 1 1 0-15.049H47.9a4 4 0 1 0 0-8H32.618a15.5 15.5 0 0 0-13.444 23.254 15.5 15.5 0 0 0-.069 30.628 15.436 15.436 0 0 0-.056 15.141H10a4 4 0 0 0-3.816 5.2c.292.929 7.4 22.469 37.525 25.955l9.242 8.295A37.543 37.543 0 0 0 78.066 334h183.868a37.543 37.543 0 0 0 25.115-9.619zm-171.077-84.112v-54.422h149.67v54.422a44.714 44.714 0 0 1-44.663 44.663h-60.343a44.714 44.714 0 0 1-44.664-44.663zm-90.879 37.139a7.531 7.531 0 0 1 6.2-7.4h12.663l3.576 4.808a15.755 15.755 0 0 0 7.71 5.581l1.708.569a4 4 0 1 0 2.528-7.59l-1.708-.568a7.814 7.814 0 0 1-3.818-2.765l-4.776-6.422c-.054-.073-.121-.128-.179-.2a4.142 4.142 0 0 0-.29-.317 6.39 6.39 0 0 0-.611-.474 3.753 3.753 0 0 0-.341-.186c-.116-.058-.231-.116-.352-.163a3.782 3.782 0 0 0-.371-.115 3.6 3.6 0 0 0-.375-.092 3.776 3.776 0 0 0-.425-.043c-.09-.006-.175-.027-.266-.027h-12.4a3.969 3.969 0 0 0-.943-.124 15.607 15.607 0 0 0-1.871.124h-9.178a7.525 7.525 0 1 1 0-15.049h59.008a7.525 7.525 0 0 1 0 15.049h-18.46a4 4 0 0 0 0 8h18.46a15.621 15.621 0 0 0 1.871-.124h9.172a7.525 7.525 0 1 1 0 15.049H32.618a7.532 7.532 0 0 1-7.525-7.521zm33.2 41.02-10.2-9.159a4 4 0 0 0-2.29-1.006c-17.06-1.637-25.446-9.792-29.237-15.331h306.871c-3.791 5.539-12.177 13.694-29.237 15.331a4 4 0 0 0-2.29 1.006l-10.205 9.159A29.555 29.555 0 0 1 261.934 326H78.066a29.555 29.555 0 0 1-19.766-7.572zM163.962 63.765q.533.79 1.069 1.542a4 4 0 0 0 6.511-4.65q-.471-.657-.942-1.357a4 4 0 1 0-6.641 4.462z" fill="#ffffff" opacity="1" data-original="#000000" class=""></path><path d="M161.18 11.949a4 4 0 0 0-4.886.993c-1.26 1.5-30.663 37.2-12.852 68.966.522.931 1.095 1.807 1.554 2.51 3.087 4.736 17.889 29.5 6.046 52.064a4 4 0 0 0 5.737 5.2 71.534 71.534 0 0 0 18.278-18.968 51.876 51.876 0 0 0 4.406-48.857 4 4 0 0 0-7.374 3.1 43.891 43.891 0 0 1-3.7 41.339 64.521 64.521 0 0 1-5.392 7.026c3.231-21.392-8.437-40.893-11.3-45.28-.5-.769-.914-1.409-1.276-2.053-8.951-15.966-3.165-33.944 3.087-46.006a58.07 58.07 0 0 0 3.4 17.908 4 4 0 1 0 7.531-2.7 51.9 51.9 0 0 1-1.2-30.708 4 4 0 0 0-2.059-4.534zM230.721 60.978a4 4 0 0 0-4.866.319c-9.394 8.256-23.772 28.32-10.948 45.166.465.611.947 1.156 1.372 1.636 2.412 2.725 13.989 16.962 4.96 29.627a4 4 0 0 0 5 5.922 56.235 56.235 0 0 0 15.582-11.923c10.8-12.014 9.967-28.452-2.015-39.974-8.227-7.911-10.76-16.71-7.526-26.153a4 4 0 0 0-1.559-4.62zm3.54 36.54c8.976 8.631 9.608 19.959 1.61 28.86a41.688 41.688 0 0 1-3.274 3.248c1.155-12.935-7.968-24.164-10.327-26.83-.35-.4-.712-.8-1-1.179-6.4-8.408-2.7-18.011 1.879-24.915.88 7.465 4.635 14.587 11.112 20.816z" fill="#ffffff" opacity="1" data-original="#000000" class=""></path></g></svg>