<!DOCTYPE svg PUBLIC "-//W3C//DTD SVG 1.1//EN" "http://www.w3.org/Graphics/SVG/1.1/DTD/svg11.dtd">

<!-- Uploaded to: SVG Repo, www.svgrepo.com, Transformed by: SVG Repo Mixer Tools -->
<svg xmlns="http://www.w3.org/2000/svg" version="1.1" xmlns:xlink="http://www.w3.org/1999/xlink" width="512" height="512" x="0" y="0" viewBox="0 0 512 512" style="enable-background:new 0 0 512 512" xml:space="preserve" class=""><g transform="matrix(0.89,0,0,0.89,28.160068817138665,28.15945114135741)"><path d="M392.68 162.56h-2.51c.52-4.84.8-9.75.8-14.63 0-25.11-6.93-49.63-20.03-70.91a3.505 3.505 0 0 0-5.97 3.67c12.42 20.17 18.99 43.42 18.99 67.24 0 4.89-.29 9.79-.84 14.63H277.77L384.64 45.1c1.89-2.08 2.86-4.77 2.72-7.58s-1.36-5.39-3.44-7.28l-12.84-11.62c-4.28-3.87-10.93-3.55-14.81.72l-11.32 12.44c-1.3 1.43-1.2 3.64.23 4.94s3.64 1.2 4.94-.23l11.32-12.44a3.514 3.514 0 0 1 4.94-.24l12.84 11.62a3.492 3.492 0 0 1 .24 4.95l-19.45 21.37C334.16 30.43 296.24 12.5 255.55 12.5c-74.67 0-135.42 60.75-135.42 135.42 0 4.88.28 9.79.8 14.63h-2.51c-5.79 0-10.5 4.71-10.5 10.5v18.02c0 5.79 4.71 10.5 10.5 10.5h8.76l23.7 281.89c.76 8.99 8.42 16.03 17.44 16.03h174.49c9.02 0 16.68-7.04 17.44-16.03l23.7-281.89h8.76c5.79 0 10.5-4.71 10.5-10.5v-18.02c-.03-5.78-4.74-10.49-10.53-10.49zM355.25 67l-86.94 95.56h-32.88L338.2 49.6c6.15 5.19 11.86 11.01 17.05 17.4zm-99.7-47.5c28.29 0 55.18 9.14 77.17 25.72L225.96 162.56h-98c-.55-4.84-.84-9.75-.84-14.63 0-70.82 57.61-128.43 128.43-128.43zm97.71 463.38c-.45 5.39-5.05 9.62-10.46 9.62H168.3c-5.41 0-10.01-4.23-10.46-9.62l-23.65-281.3H376.9zm42.92-291.8c0 1.93-1.57 3.5-3.5 3.5H118.41c-1.93 0-3.5-1.57-3.5-3.5v-18.02c0-1.93 1.57-3.5 3.5-3.5h274.28c1.93 0 3.5 1.57 3.5 3.5v18.02z" fill="#ffffff" opacity="1" data-original="#000000" class=""></path><path d="M221.58 340.2c3.85 3.41 4.66 9.05 1.94 13.41l-4.78 7.66a17.44 17.44 0 0 0 3.24 22.35l14.13 12.51c.67.59 1.49.88 2.32.88.97 0 1.93-.4 2.62-1.18a3.498 3.498 0 0 0-.3-4.94l-14.13-12.51a10.463 10.463 0 0 1-1.94-13.41l4.78-7.66a17.44 17.44 0 0 0-3.24-22.35l-15.81-14.01c-1.45-1.28-3.66-1.15-4.94.3s-1.15 3.66.3 4.94zM253.93 385.19c3.31 1.91 7.02 2.82 10.92 2.82 13.51 0 29.41-10.84 39.55-28.4 6.45-11.17 9.58-23.32 8.8-34.21-.74-10.38-4.96-18.3-11.89-22.3-3.23-1.86-6.9-2.79-10.85-2.79-4.52 0-9.41 1.22-14.4 3.65-9.81 4.77-18.77 13.55-25.22 24.72-13.06 22.64-11.67 47.99 3.09 56.51zm8.2-10.46 12.98-11.49c3.85-3.41 4.66-9.05 1.94-13.41l-4.78-7.66a17.44 17.44 0 0 1 3.24-22.35l12.79-11.33c1.45-1.28 3.66-1.15 4.94.3s1.15 3.66-.3 4.94l-12.79 11.33a10.463 10.463 0 0 0-1.94 13.41l4.78 7.66a17.44 17.44 0 0 1-3.24 22.35l-12.98 11.49c-.67.59-1.49.88-2.32.88a3.499 3.499 0 0 1-2.32-6.12z" fill="#ffffff" opacity="1" data-original="#000000" class=""></path><path d="M255.55 438.08c50.28 0 91.04-40.76 91.04-91.04S305.83 256 255.55 256s-91.04 40.76-91.04 91.04 40.76 91.04 91.04 91.04zm-56.89-122.87c12.84-7.41 30.71-1.71 44.63 12.7.48-.91.98-1.82 1.5-2.73 7.14-12.37 17.17-22.14 28.22-27.52 11.52-5.6 22.81-5.82 31.81-.62s14.46 15.09 15.37 27.86c.87 12.26-2.58 25.83-9.72 38.2-11.42 19.78-29.76 31.82-45.86 31.82-2.08 0-4.12-.21-6.11-.62-2.22 3.78-5.2 6.89-8.96 9.06-16.46 9.51-41.2-2.52-55.25-26.86s-12.09-51.78 4.37-61.29zM102.28 345.43l-23.25 11.72a3.495 3.495 0 0 0-1.55 4.7 3.514 3.514 0 0 0 3.13 1.93c.53 0 1.07-.12 1.57-.38l23.25-11.72a3.495 3.495 0 0 0 1.55-4.7 3.506 3.506 0 0 0-4.7-1.55zM106.25 266.13l-23.46-11.29a3.492 3.492 0 0 0-4.67 1.64 3.492 3.492 0 0 0 1.64 4.67l23.46 11.29c.49.24 1.01.35 1.52.35 1.3 0 2.55-.73 3.16-1.98.83-1.75.09-3.84-1.65-4.68zM434.53 258.41a3.5 3.5 0 0 0-4.69-1.57l-23.3 11.62a3.497 3.497 0 0 0-1.57 4.69 3.494 3.494 0 0 0 4.69 1.57l23.3-11.62a3.497 3.497 0 0 0 1.57-4.69zM431.83 359.11l-23.41-11.39c-1.74-.85-3.83-.12-4.68 1.62s-.12 3.83 1.62 4.68l23.41 11.39c.49.24 1.01.35 1.53.35 1.3 0 2.54-.72 3.15-1.97.84-1.74.11-3.84-1.62-4.68z" fill="#ffffff" opacity="1" data-original="#000000" class=""></path></g></svg>