<!DOCTYPE svg PUBLIC "-//W3C//DTD SVG 1.1//EN" "http://www.w3.org/Graphics/SVG/1.1/DTD/svg11.dtd">

<!-- Uploaded to: SVG Repo, www.svgrepo.com, Transformed by: SVG Repo Mixer Tools -->
<svg xmlns="http://www.w3.org/2000/svg" version="1.1" xmlns:xlink="http://www.w3.org/1999/xlink" width="512" height="512" x="0" y="0" viewBox="0 0 488 487" style="enable-background:new 0 0 512 512" xml:space="preserve" class=""><g transform="matrix(0.7900000000000001,0,0,0.7900000000000001,51.23999999999987,-90.37639328956598)"><g fill="#263238"><path d="M394 92.488h-32a4 4 0 0 1 0-8h32a4 4 0 0 1 0 8zm0 0" fill="#ffffff" opacity="1" data-original="#263238" class=""></path><path d="M378 108.488a4 4 0 0 1-4-4v-32c0-2.207 1.793-4 4-4s4 1.793 4 4v32a4 4 0 0 1-4 4zM434 132.488h-32a4 4 0 0 1 0-8h32a4 4 0 0 1 0 8zm0 0" fill="#ffffff" opacity="1" data-original="#263238" class=""></path><path d="M418 148.488a4 4 0 0 1-4-4v-32c0-2.207 1.793-4 4-4s4 1.793 4 4v32a4 4 0 0 1-4 4zM90 320.488H66c-24.266 0-44-19.742-44-44v-56c0-24.254 19.734-44 44-44h24a4 4 0 0 1 0 8H66c-19.848 0-36 16.153-36 36v56c0 19.852 16.152 36 36 36h24a4 4 0 0 1 0 8zm0 0" fill="#ffffff" opacity="1" data-original="#263238" class=""></path><path d="M90 296.488H70c-13.23 0-24-10.765-24-24v-48c0-13.23 10.77-24 24-24h20a4 4 0 0 1 0 8H70c-8.824 0-16 7.18-16 16v48c0 8.824 7.176 16 16 16h20a4 4 0 0 1 0 8zM338 204.488a4 4 0 0 1-4-4v-32c0-2.199-1.793-4-4-4h-32a4 4 0 0 1 0-8h32c6.617 0 12 5.387 12 12v32a4 4 0 0 1-4 4zM225.922 100.488a4.208 4.208 0 0 1-1.508-.285 3.997 3.997 0 0 1-2.2-5.207l7.923-19.547a15.96 15.96 0 0 0-1.703-15.168L217 43.898c-4.777-6.84-5.664-15.503-2.375-23.175l7.621-17.801c.867-2.031 3.227-2.961 5.25-2.106a4.008 4.008 0 0 1 2.106 5.258l-7.625 17.793c-2.192 5.117-1.602 10.887 1.582 15.453l11.433 16.387a23.916 23.916 0 0 1 2.559 22.75l-7.918 19.547a4.02 4.02 0 0 1-3.711 2.484zM185.922 100.488a4.208 4.208 0 0 1-1.508-.285 3.997 3.997 0 0 1-2.2-5.207l7.923-19.547a15.96 15.96 0 0 0-1.703-15.168L177 43.898c-4.777-6.84-5.664-15.503-2.375-23.175l7.621-17.801c.867-2.031 3.234-2.961 5.25-2.106a4.008 4.008 0 0 1 2.106 5.258l-7.625 17.793c-2.192 5.117-1.602 10.887 1.582 15.453l11.433 16.387a23.916 23.916 0 0 1 2.559 22.75l-7.918 19.547a4.02 4.02 0 0 1-3.711 2.484zM265.922 100.488a4.208 4.208 0 0 1-1.508-.285 3.997 3.997 0 0 1-2.2-5.207l7.923-19.547a15.96 15.96 0 0 0-1.703-15.168L257 43.898c-4.777-6.84-5.664-15.503-2.375-23.175l7.621-17.801c.867-2.031 3.234-2.961 5.25-2.106a4.008 4.008 0 0 1 2.106 5.258l-7.625 17.793c-2.192 5.117-1.602 10.887 1.582 15.453l11.433 16.387a23.916 23.916 0 0 1 2.559 22.75l-7.918 19.547a4.02 4.02 0 0 1-3.711 2.484zM102 360.488H30a4 4 0 0 1 0-8h72c2.207 0 4 1.793 4 4 0 2.211-1.785 4-4 4zM16 360.488H4a4 4 0 0 1 0-8h12c2.215 0 4 1.793 4 4 0 2.211-1.785 4-4 4zM458 216.488h-72a4 4 0 0 1 0-8h72a4 4 0 0 1 0 8zM484 216.488h-12a4 4 0 0 1 0-8h12a4 4 0 0 1 0 8zM411.473 412.488a4.002 4.002 0 0 1-2.961-1.3l-22.504-24.754-22.504 24.746c-1.48 1.656-4.016 1.757-5.656.27a4.008 4.008 0 0 1-.274-5.65l25.465-28c1.512-1.671 4.402-1.663 5.922-.007l25.473 28a4.007 4.007 0 0 1-.274 5.656 3.99 3.99 0 0 1-2.687 1.04zm0 0" fill="#ffffff" opacity="1" data-original="#263238" class=""></path><path d="M386 424.488a4 4 0 0 1-4-4v-40c0-2.207 1.793-4 4-4s4 1.793 4 4v40a4 4 0 0 1-4 4zm0 0" fill="#ffffff" opacity="1" data-original="#263238" class=""></path></g><path fill="#ffffff" d="M402 316.488c0 35.348-16 64-16 64s-16-28.652-16-64c0-35.343 16-64 16-64s16 28.649 16 64zm0 0" opacity="1" data-original="#4db6ac" class=""></path><path fill="#ffffff" d="M386 384.488a4.009 4.009 0 0 1-3.496-2.047c-.672-1.207-16.504-29.984-16.504-65.953 0-35.972 15.832-64.742 16.504-65.949 1.418-2.527 5.566-2.527 6.984 0 .672 1.207 16.504 29.977 16.504 65.95 0 35.968-15.832 64.745-16.504 65.952a3.987 3.987 0 0 1-3.488 2.047zm0-122.742c-4.566 10.504-12 31.2-12 54.742 0 23.594 7.426 44.266 12 54.754 4.566-10.496 12-31.199 12-54.754 0-23.535-7.434-44.23-12-54.742zm0 0" opacity="1" data-original="#263238" class=""></path><path fill="#ffffff" d="M418 392.488c-17.672 0-32-12-32-12s14.328-12 32-12 32 12 32 12-14.328 12-32 12zm0 0" opacity="1" data-original="#4db6ac" class=""></path><path fill="#ffffff" d="M418 396.488c-18.91 0-33.938-12.406-34.566-12.926a4.004 4.004 0 0 1-1.434-3.074c0-1.183.52-2.3 1.434-3.07.628-.52 15.656-12.93 34.566-12.93s33.938 12.41 34.566 12.938a4 4 0 0 1 1.434 3.062c0 1.188-.52 2.305-1.434 3.067-.628.527-15.656 12.933-34.566 12.933zm-25.047-16c5.223 3.274 14.582 8 25.047 8 10.52 0 19.848-4.718 25.055-7.988-5.223-3.281-14.575-8.012-25.055-8.012-10.465 0-19.824 4.73-25.047 8zm0 0" opacity="1" data-original="#263238" class=""></path><path fill="#ffffff" d="M354 392.488c17.672 0 32-12 32-12s-14.328-12-32-12-32 12-32 12 14.328 12 32 12zm0 0" opacity="1" data-original="#4db6ac" class=""></path><path fill="#ffffff" d="M354 396.488c-18.91 0-33.938-12.406-34.566-12.926a4.004 4.004 0 0 1-1.434-3.074c0-1.183.52-2.3 1.434-3.07.628-.52 15.656-12.93 34.566-12.93s33.938 12.41 34.566 12.938a4 4 0 0 1 1.434 3.062c0 1.188-.52 2.305-1.434 3.067-.628.527-15.656 12.933-34.566 12.933zm-25.047-16c5.223 3.274 14.582 8 25.047 8 10.52 0 19.848-4.718 25.055-7.988-5.223-3.281-14.575-8.012-25.055-8.012-10.465 0-19.824 4.73-25.047 8zm0 0" opacity="1" data-original="#263238" class=""></path><path fill="#ffffff" d="M434.09 349.379c-21.875 21.863-48.09 31.11-48.09 31.11s9.238-26.216 31.113-48.079c21.871-21.863 48.078-31.113 48.078-31.113s-9.238 26.21-31.101 48.082zm0 0" opacity="1" data-original="#4db6ac" class=""></path><path fill="#ffffff" d="M386 384.488a3.994 3.994 0 0 1-3.777-5.324c.394-1.113 9.808-27.34 32.058-49.586 22.254-22.246 48.48-31.664 49.574-32.055 1.457-.503 3.075-.152 4.16.942a4.002 4.002 0 0 1 .946 4.16c-.395 1.113-9.8 27.328-32.059 49.578-22.254 22.254-48.476 31.672-49.582 32.063a4.109 4.109 0 0 1-1.32.222zm71.52-75.511c-9.329 4.503-24.344 13.035-37.575 26.257-13.226 13.223-21.754 28.239-26.257 37.567 9.328-4.504 24.343-13.031 37.57-26.254 13.254-13.258 21.765-28.258 26.262-37.57zm0 0" opacity="1" data-original="#263238" class=""></path><path fill="#ffffff" d="M337.922 349.379c21.863 21.863 48.078 31.11 48.078 31.11s-9.238-26.216-31.113-48.079c-21.871-21.87-48.078-31.113-48.078-31.113s9.238 26.21 31.113 48.082zm0 0" opacity="1" data-original="#4db6ac" class=""></path><path fill="#ffffff" d="M386 384.488c-.45 0-.895-.078-1.336-.222-1.105-.391-27.32-9.809-49.574-32.063-22.258-22.25-31.664-48.473-32.059-49.578a4.002 4.002 0 0 1 .946-4.16c1.078-1.094 2.695-1.453 4.16-.942 1.101.391 27.328 9.809 49.582 32.055 22.258 22.246 31.664 48.48 32.058 49.586a3.994 3.994 0 0 1-3.777 5.324zm-71.504-75.504c4.504 9.32 13.024 24.336 26.258 37.563 13.223 13.223 28.238 21.75 37.566 26.254-4.504-9.328-13.023-24.344-26.258-37.567-13.23-13.23-28.246-21.754-37.566-26.25zM349.992 424.488H118c-8.824 0-16-7.176-16-16 0-8.82 7.176-16 16-16h198.895a4 4 0 0 1 0 8H118c-4.406 0-8 3.586-8 8 0 4.418 3.594 8 8 8h231.055a3.726 3.726 0 0 1 3.457.922c1.242 1.106 1.734 2.902 1.152 4.457-.594 1.551-2.016 2.621-3.672 2.621zm0 0" opacity="1" data-original="#263238" class=""></path><path fill="#ffffff" d="M151.855 384.488c-.742 0-1.496-.199-2.167-.636C119.823 364.57 102 331.906 102 296.488v-140c0-13.23 10.77-24 24-24h216c13.23 0 24 10.77 24 24v112.227c0 2.207-1.793 4-4 4s-4-1.793-4-4V156.488c0-8.82-7.176-16-16-16H126c-8.824 0-16 7.18-16 16v140c0 32.692 16.465 62.832 44.031 80.64 1.856 1.192 2.383 3.673 1.184 5.528a3.975 3.975 0 0 1-3.36 1.832zm0 0" opacity="1" data-original="#263238" class=""></path></g></svg>