<!DOCTYPE svg PUBLIC "-//W3C//DTD SVG 1.1//EN" "http://www.w3.org/Graphics/SVG/1.1/DTD/svg11.dtd">

<!-- Uploaded to: SVG Repo, www.svgrepo.com, Transformed by: SVG Repo Mixer Tools -->
<svg xmlns="http://www.w3.org/2000/svg" version="1.1" xmlns:xlink="http://www.w3.org/1999/xlink" width="512" height="512" x="0" y="0" viewBox="0 0 305.786 305.786" style="enable-background:new 0 0 512 512" xml:space="preserve" class=""><g><path d="M248.353 150.233c0-.06.012-.116.012-.176 0-3.068-1.248-6.016-3.464-8.812 2.116-2.484 3.336-5.052 3.46-7.672.136-2.932-.904-5.78-2.888-8.52 1.884-2.596 2.892-5.328 2.892-8.152 0-6.68-5.648-12.816-15.34-17.94.06-2.94-.448-5.612-1.688-7.916-3.156-5.852-10.14-9.092-15.876-11.264a238.653 238.653 0 0 0-3.6-1.316c-4.748-1.708-9.656-3.472-13.332-6.248-3.628-2.74-5.364-11.644-3.476-16.312.296-.452.548-.94.756-1.46l-3.528-1.844c-.272.416-.516.864-.736 1.34-1.944 2.688-6.844 3.868-11.596 5.016-1.236.3-2.456.592-3.616.912-6.308 1.732-12.112 5.12-16.876 9.576-2.416-2.112-5.468-4.008-9.132-5.66 2.552-5.144 2.564-10.772.036-15.94-1.128-2.312-4.58-.288-3.452 2.02 1.892 3.872 1.84 8.232-.112 12.072-.072.14-.076.272-.112.408-6.728-2.48-12.588-3.156-17.464-2.156-3.192-6.236-7.908-12.756-14.832-17.168-16.868-10.74-39.664-4.436-40.624-4.164l-1.696.484.28 1.74c.152.944 3.8 22.26 18.868 33.524-18.06 5.396-27.564 26.168-27.964 27.056l-.684 1.524 1.252.844c-4.82 3.936-7.516 8.276-7.516 12.876 0 2.892 1.048 5.68 3.02 8.332-1.936 2.628-3.02 5.384-3.02 8.244 0 2.872 1.02 5.688 2.984 8.404-1.904 2.608-2.984 5.336-2.984 8.172 0 .14.024.272.028.412-18.7 6.604-33.928 15.136-43.832 25.148-8.38 8.476-12.584 17.54-12.5 26.944.348 36.7 68.872 66.452 152.888 66.452h.616c60.944-.104 115.812-15.832 139.78-40.068 8.38-8.476 12.584-17.54 12.5-26.948-.192-20.932-22.632-39.584-57.432-51.764zm-1.324 10.92c27.148 9.024 43.18 22.44 43.18 38.456 0 31.992-61.332 58.012-136.716 58.012S16.781 231.593 16.781 199.605c0-15.36 14.944-28.324 40.392-37.32-.536 1.424-.864 2.872-.864 4.356 0 2.856 1.024 5.62 2.956 8.248-1.888 2.596-2.956 5.316-2.956 8.136 0 .264.04.52.056.784-5.556 5.66-8.348 11.704-8.292 17.964.236 24.708 46.484 44.74 103.188 44.74h.416c41.164-.072 78.212-10.684 94.384-27.036 5.628-5.688 8.452-11.772 8.392-18.076-.052-5.428-2.36-10.62-6.48-15.432.244-.968.388-1.948.388-2.94 0-2.824-1.068-5.54-2.956-8.136 1.932-2.628 2.956-5.392 2.956-8.252 0-1.876-.48-3.704-1.332-5.488zm-36.524-78.924c1.188.428 2.372.852 3.54 1.296 4.688 1.772 11.216 4.68 13.768 9.42 1.56 2.892 1.712 6.648.456 11.16-.86 3.1-2.012 5.156-3.74 6.664-2.96 2.588-7.52 3.544-12.748 4.444-.66.112-1.296.212-1.952.324 3.336-7.576 5.924-17.392 2.648-25.148-1.7-4.032-4.36-5.404-7.916-7.736-3.304-2.164-5.752-4.304-7.608-6.696 4.02 2.792 8.844 4.58 13.552 6.272zm-14.216-2.536c2.396 2.504 5.592 3.616 8.332 5.608 10.276 7.472 6.992 21.196 2.532 30.676-6.752 1.116-13.26 2.036-19.5 2.532 3.14-4.324 4.54-9.436 3.864-15.172-.748-6.328-3.404-12.04-3.872-18.488-.528-7.256.684-14.508 2.152-21.616.824 5.964 2.196 11.964 6.492 16.46zm-8.8-18.772c.172-.06.34-.128.508-.192-1.936 9.132-3.572 18.512-2.232 27.844 1.6 11.14 6.732 20.964-1.208 30.144-7.792.432-15.184.12-22.12-1.528-8.712-20.476 13.544-40.204 24.956-55.268.276-.364.252-.712.096-1zm-10.1 2.804c1.12-.308 2.304-.592 3.5-.88 1.208-.292 2.448-.62 3.676-.956-5.6 7.204-12.904 14.992-18.444 23.336.512-4.74-.792-9.064-3.848-12.848 4.28-4.008 9.448-7.096 15.116-8.652zm-43.744-.152c3.596 0 7.78.92 12.532 2.768 13.748 5.344 18.732 13.16 14.816 23.232-4.712 12.12-22.188 28.408-33.224 24.108-11.032-4.288-12.924-28.1-8.212-40.22 2.56-6.584 7.28-9.888 14.088-9.888zm26.032 52.796c-1.044-.308-2.108-.556-3.132-.932-1.46-.532-3.084-1.216-4.048-2.212-.956-.988-1.312-2.396-1.516-3.848a58.699 58.699 0 0 0 7.916-8.5c-1.16 5-1.1 10.164.78 15.492zm-47.42-70.004c5.984 3.812 10.124 9.52 13.048 15.096-2.712 1.252-5.02 3.152-6.84 5.752L78.649 41.845c6.952-1.26 22.096-2.812 33.608 4.52zm-35.132-2.128 39.912 25.428c-.4.776-.844 1.496-1.18 2.36-.412 1.064-.768 2.264-1.092 3.512-5.364-1.684-11.64-2.776-18.036-2.04-.432-.24-.88-.44-1.304-.708-11.52-7.336-16.504-21.716-18.3-28.552zm11.72 52.616 7.144-2.04-3.872 14.652a40.087 40.087 0 0 1-6.956-.844l3.684-11.768zm-5.896 11.256c-5.916-1.528-10.948-3.964-13.916-5.596l17.204-4.916-3.288 10.512zm15.58-14.024 7.68-2.192-5.012 16.54c-2.224.632-4.484.932-6.728 1.02l4.06-15.368zm10.272-2.936 4.436-1.268c.08 3.592.48 7.232 1.268 10.664-3.024 2.8-6.584 5.236-10.628 6.86l4.924-16.256zM92.657 78.293c7.312-2.092 14.976-.848 21.284 1.184a56.392 56.392 0 0 0-.712 8.052l-44.82 12.804c3.248-5.788 11.588-18.424 24.248-22.04zm-25.148 27.932c5.068 2.772 14.912 7.26 25.584 7.26 3.052 0 6.168-.368 9.26-1.248 5.18-1.48 9.628-4.252 13.4-7.456 2.064 5.848 5.46 10.612 10.58 12.6 1.74.676 3.548.984 5.392.984 5.228 0 10.744-2.504 15.784-6.196.388 1.352.992 2.68 2.108 3.836 1.524 1.58 3.664 2.5 5.552 3.192 7.396 2.704 15.2 3.74 23.428 3.74 1.308 0 2.66-.1 3.988-.148.332.176.74.184 1.112-.04 9.092-.428 18.656-1.848 28.764-3.592 4.496-.776 10.656-1.836 14.7-5.376 3.044-2.66 4.288-6.184 4.96-8.6.188-.672.264-1.296.396-1.944 7.596 4.272 11.844 9.02 11.844 13.672 0 13.884-36.98 28.748-92.028 28.748s-92.028-14.864-92.028-28.748c.004-3.596 2.58-7.24 7.204-10.684zm-5.424 22.08c13.308 12.576 48.224 21.336 90.248 21.336 42.244 0 77.296-8.856 90.448-21.536 1.104 1.764 1.672 3.528 1.588 5.28-.2 4.284-4.844 8.82-12.804 13a.162.162 0 0 0-.02.036c-1.616.876-3.092 1.588-7.044 3.496-1.872.904-2.212 3.22-2.604 5.9-.496 3.352-1.012 5.96-2.784 6.516-3.332 1.044-5.016-.312-6.652-1.628-1.316-1.052-3.752-3.012-6.24-.468-.976 1-1.008 2.36-1.036 3.452-.04 1.672-.144 2.252-1.204 2.712-1.34.588-1.372.532-2.176-.652-.764-1.128-2.188-3.248-5.312-2.596-2.26.46-2.888 2.744-3.344 4.408-.156.56-.412 1.496-.6 1.712-1.476 1.396-2.012 1.412-2.108 1.392-.06-.008-.252-.148-.492-.536-.204-.372-.24-1.772-.26-2.608-.06-2.364-.136-5.304-2.612-6.236-.904-.336-1.76-.208-2.636-.084-6.112.664-11.816.708-18.416.76-2.132.016-4.34.036-6.648.076-.084-.016-.164-.028-.248-.044-2.256.1-4.528.18-6.832.228-38.664.776-74.716-7.532-87.612-20.176-2.908-2.848-4.38-5.732-4.38-8.572 0-1.72.66-3.448 1.78-5.168zm90.252 83.468c-55.048 0-92.028-14.864-92.028-28.748 0-1.68.628-3.372 1.704-5.052 13.248 12.616 48.22 21.412 90.328 21.412 42.112 0 77.088-8.8 90.332-21.416 1.076 1.68 1.692 3.376 1.692 5.056 0 13.884-36.98 28.748-92.028 28.748zm92.028-12.168c0 13.884-36.98 28.748-92.028 28.748-55.048 0-92.028-14.864-92.028-28.748 0-1.728.628-3.468 1.752-5.192 13.288 12.588 48.224 21.36 90.276 21.36 42.04 0 76.968-8.768 90.264-21.352 1.132 1.724 1.764 3.46 1.764 5.184zm-92.028-4.22c-55.048 0-92.028-14.864-92.028-28.748 0-1.72.656-3.452 1.78-5.168 13.308 12.576 48.224 21.336 90.248 21.336 42.04 0 76.968-8.768 90.264-21.352 1.132 1.724 1.764 3.46 1.764 5.184 0 13.884-36.98 28.748-92.028 28.748zm.004-16.588c-55.048 0-92.028-14.864-92.028-28.748 0-1.68.624-3.368 1.696-5.048 13.296 12.916 47.08 21.276 85.2 21.276 1.712 0 3.44-.016 5.168-.052.408-.008.8-.04 1.208-.052 4.508-.164 8.632-.212 12.472-.244 6.428-.052 12.5-.1 18.808-.784l.472-.064a6.47 6.47 0 0 1 .176-.024c.156.588.188 1.792.208 2.56.044 1.724.084 3.352.844 4.584 1.08 1.756 2.42 2.272 3.356 2.396.184.024.368.036.548.036 1.924 0 3.564-1.308 4.808-2.488.976-.924 1.356-2.312 1.692-3.536.152-.56.412-1.496.312-1.572.5-.108.528-.104 1.236.932.872 1.288 2.684 3.964 7.044 2.068 3.472-1.508 3.548-4.596 3.592-6.252.004-.18.008-.412.02-.612.248.176.552.42.8.62 1.86 1.492 4.968 4 10.324 2.32 4.288-1.344 5-6.188 5.52-9.724.16-1.08.4-2.712.408-2.904 6.436-3.108 6.436-3.108 10.884-5.664l-.084-.148c1.864-1.164 3.592-2.348 5.024-3.572 1.468 1.972 2.32 3.968 2.32 5.948 0 13.884-36.98 28.748-92.028 28.748zm-.004 53.544c53.848 0 96.028-14.384 96.028-32.748 0-2.86-1.088-5.616-3.02-8.244a16.333 16.333 0 0 0 1.784-2.976c3.184 4.116 5.016 8.488 5.06 13.044.056 5.676-2.548 11.216-7.736 16.46-15.768 15.944-52.184 26.292-92.776 26.36h-.42c-55.46 0-100.692-19.024-100.912-42.492-.052-5.2 2.18-10.272 6.528-15.12.504 1.632 1.336 3.224 2.492 4.768-1.936 2.616-3.056 5.352-3.056 8.2 0 18.36 42.18 32.748 96.028 32.748zm138.132-6.184c-23.26 23.52-77.02 38.788-136.964 38.892h-.624c-81.832 0-148.58-27.996-148.904-62.524-.08-8.308 3.74-16.42 11.348-24.116 9.432-9.54 23.952-17.684 41.8-24.044a16.083 16.083 0 0 0 2.2 4.024c-.284.384-.56.772-.804 1.16-27.688 9.428-44.008 23.4-44.008 40.056 0 33.24 62.348 60.284 138.988 60.284s138.988-27.044 138.988-60.284c0-17.708-17.328-32.156-46.948-41.492.968-1.352 1.688-2.744 2.16-4.16 32.86 11.468 53.94 28.74 54.124 48.088.076 8.304-3.744 16.42-11.356 24.116z" fill="#ffffff" opacity="1" data-original="#000000" class=""></path><path d="m82.957 129.125 1-2.652c-7.896-2.984-17.004-7.34-17.388-14.624l-2.832.148c.532 10.068 13.628 15.012 19.22 17.128zM104.505 132.253c-4.452-.94-8.9-2.056-13.224-3.32l-.796 2.72a181.099 181.099 0 0 0 13.432 3.376l.588-2.776zM197.565 135.957l1.852-.264c14.516-2.072 41.544-5.928 42.836-23.664l-2.828-.208c-1.128 15.456-27.66 19.244-40.412 21.064l-1.864.268c-31.308 4.564-58.668 4.82-83.644.78l-.452 2.796c11.888 1.92 24.296 2.884 37.4 2.884 14.752 0 30.38-1.22 47.112-3.656zM142.701 91.973l.452-.012c2.568-.068 2.58-4.068 0-4l-.452.012c-2.572.068-2.58 4.068 0 4zM139.025 77.557l-.012-.452c-.064-2.568-4.068-2.58-4 0l.012.452c.068 2.572 4.068 2.58 4 0zM148.493 77.329l.452-.012c2.568-.064 2.58-4.068 0-4l-.452.012c-2.568.068-2.58 4.068 0 4zM153.073 88.169l.452-.012c2.568-.064 2.58-4.068 0-4l-.452.012c-2.568.064-2.576 4.064 0 4zM131.437 106.641l-.452.012c-2.568.068-2.58 4.068 0 4l.452-.012c2.568-.064 2.58-4.064 0-4zM125.985 99.265l.452-.012c2.568-.068 2.58-4.068 0-4l-.452.012c-2.568.064-2.58 4.064 0 4zM130.985 90.985l.452-.012c2.568-.068 2.58-4.068 0-4l-.452.012c-2.568.068-2.58 4.068 0 4zM128.829 73.005l.452-.012c2.568-.064 2.58-4.068 0-4l-.452.012c-2.572.064-2.58 4.064 0 4zM122.813 78.749c-2.568.064-2.58 4.068 0 4l.452-.012c2.568-.064 2.58-4.068 0-4l-.452.012zM142.701 102.285l.452-.012c2.568-.064 2.58-4.068 0-4l-.452.012c-2.572.064-2.58 4.068 0 4z" fill="#ffffff" opacity="1" data-original="#000000" class=""></path></g></svg>