<!DOCTYPE svg PUBLIC "-//W3C//DTD SVG 1.1//EN" "http://www.w3.org/Graphics/SVG/1.1/DTD/svg11.dtd">

<!-- Uploaded to: SVG Repo, www.svgrepo.com, Transformed by: SVG Repo Mixer Tools -->
<svg xmlns="http://www.w3.org/2000/svg" version="1.1" xmlns:xlink="http://www.w3.org/1999/xlink" width="512" height="512" x="0" y="0" viewBox="0 0 468 468" style="enable-background:new 0 0 512 512" xml:space="preserve" class=""><g transform="matrix(0.9100000000000008,0,0,0.9100000000000008,21.05999999999989,21.05999999999989)"><path d="M352.232 86.636V55.722a6 6 0 0 0-6-6h-52.51L253.299 4.493a2.42 2.42 0 0 0-3.78 3.013l29.933 42.215H136.807a6 6 0 0 0-6 6v30.914c-14.601 2.964-25.625 15.898-25.625 31.36v281.04c0 15.768 11.467 28.9 26.498 31.517v12.49c0 13.234 10.767 24 24 24h171.68c13.233 0 24-10.766 24-24v-12.49c15.031-2.617 26.498-15.749 26.498-31.517V234a6 6 0 0 0-12 0v165.036c0 11.028-8.972 20-20 20H137.182c-11.028 0-20-8.972-20-20v-13.841l85.14-1.963a3.908 3.908 0 0 0 3.809-3.809 3.9 3.9 0 0 0-3.809-3.989l-85.14-1.963V117.997c0-11.028 8.972-20 20-20h208.676c11.028 0 20 8.972 20 20v13.856l-85.14 2.179a3.678 3.678 0 0 0-3.574 3.574 3.669 3.669 0 0 0 3.574 3.762l85.14 2.179v58.401a6 6 0 0 0 12 0v-83.951c-.001-15.463-11.025-28.397-25.626-31.361zm-24.873 368.407H155.68c-6.617 0-12-5.383-12-12v-12.007h195.68v12.007c-.001 6.617-5.383 12-12.001 12zm12.873-393.321v24.274H142.807V61.722zM75.133 162.483a3.237 3.237 0 0 0-3.281 3.193l-2.763 202.105v.164a6 6 0 1 0 12-.164l-2.763-202.105a3.243 3.243 0 0 0-3.193-3.193zM404.713 166.674l-2.763 202.105v.164a6 6 0 1 0 12-.164l-2.763-202.105a3.243 3.243 0 0 0-3.193-3.193 3.238 3.238 0 0 0-3.281 3.193z" fill="#ffffff" opacity="1" data-original="#000000" class=""></path><path d="M140.779 259.354c0 55.354 45.191 100.387 100.74 100.387s100.74-45.033 100.74-100.387-45.191-100.387-100.74-100.387S140.779 204 140.779 259.354zm12 0c0-51.475 45.921-92.73 97.02-87.999l-59.912 101.57c-2.317 3.926.611 9.041 5.158 9.048l30.48.047-9.608 61.965c-36.488-10.971-63.138-44.757-63.138-84.631zm84.306 12.777a6.004 6.004 0 0 0-4.55-2.1l-26.984-.042 45.766-77.588-4.217 49.589c-.294 3.447 2.51 6.503 5.969 6.508l25.721.04-47.578 75.127 7.243-46.715a5.998 5.998 0 0 0-1.37-4.819zm93.175-12.777c0 48.737-39.809 88.387-88.74 88.387-3.699 0-7.345-.23-10.927-.67l64.157-101.304c2.482-3.921-.43-9.203-5.06-9.21l-30.081-.047 5.308-62.417c37.615 10.25 65.343 44.588 65.343 85.261zM392.828 37.933v-9.967h10.042a6 6 0 0 0 0-12h-10.042V6a6 6 0 0 0-12 0v9.966h-10.042a6 6 0 0 0 0 12h10.042v9.967a6 6 0 0 0 12 0zM60.05 62.299C46.237 62.299 35 73.66 35 87.625s11.237 25.325 25.05 25.325c13.812 0 25.049-11.361 25.049-25.325S73.861 62.299 60.05 62.299zm0 38.651c-7.195 0-13.05-5.978-13.05-13.325S52.854 74.3 60.05 74.3s13.049 5.978 13.049 13.325-5.854 13.325-13.049 13.325zM407.95 418.08c-13.812 0-25.049 11.197-25.049 24.96S394.139 468 407.95 468c13.813 0 25.05-11.197 25.05-24.96s-11.237-24.96-25.05-24.96zm0 37.92c-7.195 0-13.049-5.814-13.049-12.96s5.854-12.96 13.049-12.96S421 435.894 421 443.04 415.146 456 407.95 456z" fill="#ffffff" opacity="1" data-original="#000000" class=""></path><circle cx="233" cy="379.333" r="7" fill="#ffffff" opacity="1" data-original="#000000" class=""></circle><circle cx="251.409" cy="138.333" r="7" fill="#ffffff" opacity="1" data-original="#000000" class=""></circle></g></svg>