<?xml version="1.0" ?>

<!-- Uploaded to: SVG Repo, www.svgrepo.com, Generator: SVG Repo Mixer Tools -->
<svg xmlns="http://www.w3.org/2000/svg" version="1.1" xmlns:xlink="http://www.w3.org/1999/xlink" width="512" height="512" x="0" y="0" viewBox="0 0 66 66" style="enable-background:new 0 0 512 512" xml:space="preserve" class=""><g><path d="M15.164 29.98c-2.666 1.749-4.372 5.009-4.346 8.305.025 3.19 1.58 6.336 4.158 8.419 2.159 1.743 4.967 2.7 7.85 2.7.248 0 .497-.02.745-.034l-.016 7.554a6.9 6.9 0 0 0 2.026 4.929 6.919 6.919 0 0 0 4.936 2.049h17.519c3.832 0 6.955-3.115 6.962-6.942.015-5.103.061-26.367.069-30.179a3.654 3.654 0 0 0 2.256-3.371 3.653 3.653 0 0 0-2.843-3.556c.444-.5.746-1.12.812-1.809a3.317 3.317 0 0 0-.842-2.54 3.284 3.284 0 0 0-2.4-1.08h-.003l-1.504-.091c-.058-3.818-2.563-7.467-6.146-8.838-.54-.206-1.34-.434-2.064-.038-.598.327-.967 1.01-.987 1.826-.01.417.062.802.132 1.174.027.144.054.288.076.432.133.916-.073 1.885-.597 2.805-.958 1.683-2.837 2.729-4.905 2.729H34.9L30.74 3.287a1.826 1.826 0 0 0-.985-1.038 1.8 1.8 0 0 0-1.43-.005l-1.36.58a1.808 1.808 0 0 0-.996 2.315l3.467 9.285h-2.823c-.928 0-1.818.393-2.442 1.08a3.317 3.317 0 0 0-.841 2.541c.065.69.367 1.31.811 1.809a3.653 3.653 0 0 0-2.843 3.556c0 1.544.966 2.864 2.324 3.396l-.006 2.418c-2.667-1.153-5.946-.89-8.453.756zm38.617 8.603c-3.185.86-6.78.26-9.495-1.615a28.664 28.664 0 0 1-.853-.62c-1.225-.914-2.602-1.953-4.296-1.875-1.548.07-2.718 1.025-3.848 1.949-.425.346-.826.673-1.243.954-2.793 1.874-6.857 1.41-9.185-1.004l.022-9.312h28.922l-.024 11.523zM15.674 42.03a.631.631 0 0 1-1.012.753 7.244 7.244 0 0 1-1.39-4.835 7.238 7.238 0 0 1 2.143-4.552.631.631 0 0 1 .88.904 5.96 5.96 0 0 0-1.765 3.749 5.963 5.963 0 0 0 1.144 3.981zm3.07-9.675-.256.192a.627.627 0 0 1-.883-.127.63.63 0 0 1 .127-.882l.26-.195a.63.63 0 0 1 .752 1.012zm.49 10.516c-1.332-1.074-2.135-2.693-2.147-4.328-.013-1.665.843-3.307 2.18-4.185 1.297-.849 3-.946 4.338-.29l-.023 10.206c-1.599.052-3.163-.444-4.349-1.403zm28.802 19.77H30.517a5.666 5.666 0 0 1-4.042-1.677 5.647 5.647 0 0 1-1.659-4.035l.041-18.872c2.8 2.112 6.949 2.342 9.892.367.466-.313.91-.675 1.338-1.025 1.016-.83 1.976-1.613 3.108-1.665 1.215-.064 2.325.76 3.483 1.625.298.223.593.443.89.649 2.113 1.458 4.703 2.223 7.281 2.223.988 0 1.973-.115 2.93-.344-.014 6.106-.028 12.153-.042 17.071-.006 3.134-2.564 5.683-5.701 5.683zM29.579 4.686l1.499 4.187a.63.63 0 1 1-1.188.425L28.392 5.11a.63.63 0 1 1 1.187-.425zm1.131 6.619a.63.63 0 0 1 1.25.163.631.631 0 0 1-1.25.164 1.04 1.04 0 0 1 0-.327zM22.56 23.41a2.39 2.39 0 0 1 2.388-2.388h10.166a.63.63 0 1 0 0-1.261H26.73c-1.104 0-2.045-.806-2.143-1.835a2.042 2.042 0 0 1 2.028-2.24h9.438c2.52 0 4.82-1.29 6.001-3.366.665-1.168.924-2.416.748-3.612-.023-.161-.053-.322-.083-.483-.061-.322-.119-.626-.111-.91.007-.288.112-.631.331-.75.199-.11.529-.074 1.008.109 3.228 1.235 5.517 4.768 5.326 8.218a.63.63 0 0 0 .59.664l2.147.13a2.042 2.042 0 0 1 2.028 2.24c-.099 1.029-1.04 1.835-2.144 1.835h-2.78a.63.63 0 1 0 0 1.261h4.561c1.317 0 2.388 1.071 2.388 2.388s-1.07 2.388-2.388 2.388H24.948a2.39 2.39 0 0 1-2.388-2.388zM57.643 33.539a.63.63 0 0 0-.63.63v7.094a.63.63 0 1 0 1.26 0V34.17a.63.63 0 0 0-.63-.63zM57.206 44.553v.84a.63.63 0 1 0 1.261 0v-.84a.63.63 0 1 0-1.261 0z" fill="#ffffff" opacity="1" data-original="#000000"></path><path d="M40.555 58.884h-9.418a.63.63 0 1 0 0 1.261h9.418a.63.63 0 1 0 0-1.261zM44.182 58.562h-.47a.63.63 0 1 0 0 1.26h.47a.63.63 0 1 0 0-1.26zM8.246 37.881a.62.62 0 0 0-.677.58c-.201 2.614.447 5.281 1.824 7.511s3.472 4.004 5.9 4.994a.63.63 0 1 0 .477-1.168 11.29 11.29 0 0 1-5.305-4.488 11.292 11.292 0 0 1-1.638-6.751.631.631 0 0 0-.58-.678zM18.148 50.557a.63.63 0 1 0-.573 1.123c.127.065.261.109.4.13a.63.63 0 0 0 .197-1.245.122.122 0 0 1-.024-.008z" fill="#ffffff" opacity="1" data-original="#000000"></path></g></svg>