<!DOCTYPE svg PUBLIC "-//W3C//DTD SVG 1.1//EN" "http://www.w3.org/Graphics/SVG/1.1/DTD/svg11.dtd">

<!-- Uploaded to: SVG Repo, www.svgrepo.com, Transformed by: SVG Repo Mixer Tools -->
<svg xmlns="http://www.w3.org/2000/svg" version="1.1" xmlns:xlink="http://www.w3.org/1999/xlink" width="512" height="512" x="0" y="0" viewBox="0 0 510.996 510.996" style="enable-background:new 0 0 512 512" xml:space="preserve" class=""><g transform="matrix(0.8500000000000002,0,0,0.8500000000000002,38.32462692260742,38.32477798461906)"><path d="M483.696 339.248h-14.868a29.794 29.794 0 0 0 4.135-15.17V309.41c0-59.481-38.675-110.095-92.197-128.029a29.92 29.92 0 0 0 5.501-6.764c8.82-14.912 2.896-34.277-11.441-42.41V98.444h-15v29.936c-16.158.255-30.136 13.86-30.105 30.79.003 5.537 1.589 10.787 4.312 15.319-72.612 2.096-131.037 61.812-131.037 134.921v14.655a29.808 29.808 0 0 0 4.141 15.183H85.768L15 267.838v-25.667l142.848-145.53h25.227l18.998 19.893 10.848-10.359-23.428-24.534h-37.938L0 236.04v37.973l68.309 68.928-22.823 24.891v16.746l26.118 29.67h297.418c3.112 8.792 11.506 15.108 21.35 15.108 17.622 0 22.148-15.108 22.148-15.108h71.267l27.208-29.576v-16.936zm7.973 29.999h-78.653v-10.6l4.479-4.579h25.478v.18h34.322zM279.197 204.846c17.383-9.811 37.439-15.419 58.783-15.419 30.28 0 57.971 11.28 79.106 29.852h-80.092c-12.223 0-22.167 9.944-22.167 22.167v.333c0 3.952-3.215 7.167-7.167 7.167s-7.167-3.215-7.167-7.167v-14.787c.001-11.932-9.475-21.687-21.296-22.146zm80.793-61.471c8.964 0 15.969 7.609 15.488 16.498-.452 8.358-7.678 14.965-16.062 14.642-8.094-.313-14.684-7.315-14.695-15.372-.011-8.423 6.704-15.768 15.269-15.768zm38.026 209.155v54.181c0 4.215-3.429 7.644-7.645 7.644s-7.645-3.429-7.645-7.644v-97.59h-15v60.127H134.994v15h232.733v15H78.383l-13.203-15h24.814v-15H64.538l13.753-14.999h161.712v-.18h112.476v-15H233c-8.273 0-15.003-6.73-15.003-15.003V309.41c0-35.584 15.577-67.594 40.263-89.586h20.068a7.175 7.175 0 0 1 7.167 7.167v14.787c0 12.223 9.944 22.167 22.167 22.167s22.167-9.944 22.167-22.167v-.333a7.175 7.175 0 0 1 7.167-7.167h94.46c16.573 20.578 26.51 46.714 26.51 75.132v14.667c0 8.266-6.725 14.991-14.991 14.991h-31.789zm79.189 46.717h-64.188v-15h77.987z" fill="#ffffff" opacity="1" data-original="#000000" class=""></path><path d="M104.993 369.247h15v15h-15zM212.764 127.275l10.605-10.605 10.605 10.605-10.605 10.605zM233.972 148.488l10.605-10.605 25.136 25.136-10.605 10.605zM35.238 266.004l42.426 42.427 42.073-42.073-10.607-10.607-31.466 31.467-21.213-21.214 21.213-21.212 10.607 10.606 10.606-10.606-21.213-21.213zM87.918 213.325l42.426 42.426 42.426-42.426-42.426-42.426zm42.426 21.213-21.213-21.213 21.213-21.213 21.213 21.213zM204.59 181.505l21.213-21.213-42.426-42.426-42.426 42.426 42.073 42.073 10.606-10.607-31.466-31.466 21.213-21.213 21.213 21.213-10.607 10.606zM169.663 324.458v-8.88l-39.319-39.32-39.32 39.32v8.88h15v-2.667l24.32-24.32 24.319 24.32v2.667zM195.172 298.659l-33.312-32.703 31.321-31.321-10.607-10.607-42.026 42.025 44.115 43.31zM193.42 213.142l42.547-42.547 10.605 10.605-42.547 42.547zM240.498 264.444h15v15h-15zM240.498 294.391h15v15h-15z" fill="#ffffff" opacity="1" data-original="#000000" class=""></path></g></svg>