<!DOCTYPE svg PUBLIC "-//W3C//DTD SVG 1.1//EN" "http://www.w3.org/Graphics/SVG/1.1/DTD/svg11.dtd">

<!-- Uploaded to: SVG Repo, www.svgrepo.com, Transformed by: SVG Repo Mixer Tools -->
<svg xmlns="http://www.w3.org/2000/svg" version="1.1" xmlns:xlink="http://www.w3.org/1999/xlink" width="512" height="512" x="0" y="0" viewBox="0 0 100 88" style="enable-background:new 0 0 512 512" xml:space="preserve" class=""><g><g fill="#000"><path fill-rule="evenodd" d="m32.096 15.925-8.782-.769a6.98 6.98 0 0 0-5.631 2.107L5.654 29.733a6.979 6.979 0 0 0-1.93 4.237L.028 76.235c-.333 3.81 2.451 7.181 6.264 7.547 6.552.628 17.21 1.64 26.76 2.493 9.525.852 18.004 1.553 20.154 1.553.563 0 1.041-.346 1.38-.668.73-.693 1.26-1.604 1.717-2.49h5.29c.62 0 .915-.54 1.043-.86.151-.382.248-.892.312-1.473.129-1.177.143-2.836.076-4.81-.136-3.958-.605-9.293-1.204-14.824-1.19-11.005-2.9-22.856-3.54-26.33-.02-1.061-.558-2.411-1.309-3.824-.78-1.47-1.85-3.115-3.017-4.757-2.335-3.287-5.095-6.618-6.809-8.624-1.16-1.357-2.805-2.172-4.57-2.327l-9.21-.805c.982-5.412 4.638-10.319 9.232-12.888C47.346.49 53.041.352 57.844 4.684c1.165 1.052 2.314 2.837 3.454 5.225 1.134 2.375 2.234 5.29 3.326 8.546 1.356 4.044 2.686 8.574 4.05 13.219.838 2.85 1.688 5.745 2.565 8.598 2.295 7.467 4.768 14.63 7.638 19.774 1.435 2.572 2.994 4.684 4.717 6.076 1.019.823 2.104 1.4 3.255 1.666l-.24.13c-.296.159-.516.43-.612.752l-.975 3.262c-.097.323-.06.67.099.966l3.637 6.738a1.269 1.269 0 0 0 1.72.514l8.856-4.781a1.27 1.27 0 0 0 .513-1.72l-3.637-6.737a1.27 1.27 0 0 0-.753-.613l-3.262-.975a1.269 1.269 0 0 0-.966.1l-2.253 1.216c-1.607.207-3.119-.32-4.584-1.505-1.543-1.246-3.007-3.2-4.407-5.707-2.798-5.014-5.237-12.06-7.533-19.53-.866-2.815-1.712-5.695-2.548-8.54v-.002c-1.37-4.666-2.715-9.243-4.077-13.305-1.099-3.276-2.217-6.246-3.384-8.689-1.16-2.43-2.395-4.398-3.749-5.62C53.419-1.017 47.116-.835 41.977 2.04c-4.943 2.765-8.861 8.038-9.881 13.885zM91.832 66.54l3.261.974 3.638 6.738-8.856 4.781-3.637-6.738.974-3.261zM57.01 36.403c-.012-.73-.412-1.848-1.161-3.259-.745-1.402-1.78-2.996-2.932-4.617-2.302-3.241-5.033-6.54-6.739-8.535a5.495 5.495 0 0 0-3.715-1.886l-9.306-.815c-.374 2.228-.967 6.145-1.11 8.48l12.008 1.05a.634.634 0 1 1-.11 1.264l-24.777-2.168a.634.634 0 0 1 .11-1.264l11.504 1.007c.151-2.388.734-6.249 1.107-8.48l-8.686-.76a5.71 5.71 0 0 0-4.608 1.724L6.568 30.614a5.71 5.71 0 0 0-1.58 3.466L1.292 76.346c-.273 3.122 2.006 5.875 5.12 6.174 6.552.628 17.207 1.639 26.752 2.492 8.473.758 16.027 1.387 19.088 1.521a8.16 8.16 0 0 1-.148-1.21c-.109-1.877.14-4.445.315-5.954.048-.414.099-.828.157-1.242zm-3.109 41.24 4.436.486c.2.022.376.136.478.31a107.898 107.898 0 0 0 2.768 4.438c.037-.187.072-.412.101-.679.12-1.083.137-2.667.07-4.628-.134-3.91-.6-9.207-1.197-14.73a576.23 576.23 0 0 0-2.784-21.62zM60.41 83.4h-3.523l1.463-3.268a112.392 112.392 0 0 0 2.06 3.268zm-3.076-4.106-3.582-.392c-.021.174-.047.38-.073.611-.173 1.49-.409 4.019-.31 5.735.028.475.083.88.155 1.152.822-.621 1.38-1.72 1.809-2.632z" clip-rule="evenodd" fill="#ffffff" opacity="1" data-original="#000000" class=""></path><path d="M54.887 64.34c-7.316 2.212-13.513-.113-19.826-3.044-.81-.376-1.623-.763-2.441-1.151-4.127-1.962-8.381-3.984-13.155-5.1l-.098-1.047c5.037 1.13 9.487 3.247 13.696 5.25.815.387 1.62.77 2.419 1.14 6.312 2.932 12.223 5.105 19.184 2.974zM14.137 54.242c-.887-.06-1.729-.12-2.524-.176-1.874-.134-3.49-.249-4.835-.288-.956-.028-1.756-.017-2.4.05-.5.052-.877.135-1.153.242l-.723-.761c.46-.263 1.071-.403 1.772-.476.71-.074 1.56-.083 2.533-.055 1.368.04 3.016.158 4.902.292.791.057 1.624.116 2.495.174.355.023.707.053 1.056.087v1.005c-.37-.038-.745-.07-1.122-.094z" fill="#ffffff" opacity="1" data-original="#000000" class=""></path><path fill-rule="evenodd" d="M15.492 56.35a5.202 5.202 0 0 0 3.502 2.761c.01.028.024.054.04.08.52.85 1.267 1.848 2.146 2.89a5.201 5.201 0 0 0-1.834-.3 5.208 5.208 0 0 0-4.352 2.479 5.208 5.208 0 0 0 4.432 2.332 5.203 5.203 0 0 0 4.034-2.019l.352.354c1.237 1.23 2.56 2.407 3.812 3.348a6.75 6.75 0 0 0-2.107.12 6.753 6.753 0 0 0-4.908 4.253 6.753 6.753 0 0 0 6.227 1.845 6.747 6.747 0 0 0 4.675-3.703c3.373 2.574 4.62 6.27 5.358 9.005a.5.5 0 1 0 .966-.26c-.435-1.61-1.061-3.625-2.223-5.577a7.56 7.56 0 0 0 4.46-4.999 7.566 7.566 0 0 0-1.665-7.083 7.566 7.566 0 0 0-5.072 5.217 7.537 7.537 0 0 0-.034 3.92 13.512 13.512 0 0 0-3.068-2.225c-.7-.373-1.482-.902-2.301-1.536a5.204 5.204 0 0 0 1.809-4.312 5.208 5.208 0 0 0-2.698-4.22 5.209 5.209 0 0 0-2.102 4.546 5.2 5.2 0 0 0 .45 1.798c-.293-.276-.585-.56-.874-.846-1.952-1.94-3.7-4.027-4.63-5.55a5.203 5.203 0 0 0-.086-4.459 5.208 5.208 0 0 0-4.11-2.863 5.208 5.208 0 0 0-.2 5.005zm3.762 1.051c.19-.897.09-1.862-.349-2.747a4.2 4.2 0 0 0-2.657-2.187 4.2 4.2 0 0 0 .14 3.439 4.194 4.194 0 0 0 1.966 1.931l-2-4.025a.5.5 0 1 1 .895-.445zm2.791 7.208-4.415.034a.5.5 0 1 1-.008-1l4.321-.033a4.193 4.193 0 0 0-2.58-.829 4.2 4.2 0 0 0-3.118 1.458 4.2 4.2 0 0 0 3.164 1.353 4.194 4.194 0 0 0 2.636-.983zm5.947 1.1c.534-.762.82-1.703.751-2.701a4.2 4.2 0 0 0-1.615-3.04 4.2 4.2 0 0 0-1.19 3.23 4.192 4.192 0 0 0 1.051 2.51l-.307-4.364a.5.5 0 0 1 .997-.07zm7.937 6.994a6.552 6.552 0 0 0 3.179-4.011 6.56 6.56 0 0 0-1.028-5.634 6.56 6.56 0 0 0-3.781 4.302 6.552 6.552 0 0 0 .665 5.08l2.012-7.322a.5.5 0 0 1 .964.265zm-5.978-2.614a5.738 5.738 0 0 0-4.223-.717 5.746 5.746 0 0 0-3.914 3.015 5.746 5.746 0 0 0 4.81 1.128 5.738 5.738 0 0 0 3.592-2.46l-6.8 1.507a.5.5 0 0 1-.217-.976z" clip-rule="evenodd" fill="#ffffff" opacity="1" data-original="#000000" class=""></path></g></g></svg>